<svg xmlns="http://www.w3.org/2000/svg" xmlns:xlink="http://www.w3.org/1999/xlink" width="60" height="60" viewBox="0 0 60 60">
    <defs>
        <path id="a" d="M54 9c0-1.656-1.344-3-3-3H9C7.344 6 6 7.344 6 9v42c0 1.656 1.344 3 3 3h42c1.656 0 3-1.344 3-3V9zm6-3v48c0 3.315-2.685 6-6 6H6c-3.315 0-6-2.685-6-6V6c0-3.315 2.685-6 6-6h48c3.315 0 6 2.685 6 6zM42.124 20.875a2.975 2.975 0 0 1 0 4.217L30.504 36.69a4.498 4.498 0 0 1-6.349 0l-5.28-5.27a2.98 2.98 0 0 1 0-4.218 2.995 2.995 0 0 1 4.225 0l2.11 2.106a3.004 3.004 0 0 0 4.238 0l8.45-8.432a2.99 2.99 0 0 1 4.226 0z"/>
    </defs>
    <use fill="#9EA0A5" fill-opacity=".1" fill-rule="evenodd" xlink:href="#a"/>
</svg>
