<svg xmlns="http://www.w3.org/2000/svg" xmlns:xlink="http://www.w3.org/1999/xlink" width="60" height="60" viewBox="0 0 60 60">
    <defs>
        <path id="a" d="M60 6v48c0 3.315-2.685 6-6 6H6c-3.315 0-6-2.685-6-6V6c0-3.315 2.685-6 6-6h48c3.315 0 6 2.685 6 6zm-6 3c0-1.656-1.344-3-3-3H9C7.344 6 6 7.344 6 9v42c0 1.656 1.344 3 3 3h42c1.656 0 3-1.344 3-3V9zM15 36a6 6 0 1 1 0-12 6 6 0 0 1 0 12zm15 0a6 6 0 1 1 0-12 6 6 0 0 1 0 12zm15 0a6 6 0 1 1 0-12 6 6 0 0 1 0 12z"/>
    </defs>
    <use fill="#9EA0A5" fill-opacity=".1" fill-rule="evenodd" xlink:href="#a"/>
</svg>
