<svg xmlns="http://www.w3.org/2000/svg" width="180" height="70" viewBox="0 0 180 70">
    <g fill="none" fill-rule="evenodd">
        <path fill="#CCC" d="M55.571.647L22.68 40.142a.392.392 0 0 1-.51.082L.976 27.032a.394.394 0 0 1 .035-.69L55.096.043c.382-.185.746.28.475.605M8.076 67.956l54.916-27.458a.394.394 0 0 0 .032-.686L41.927 26.663a.394.394 0 0 0-.51.082L7.596 67.352c-.272.328.098.795.48.604"/>
        <path fill="#141516" d="M55.097 4.506l-54.085 26.3a.394.394 0 0 0-.036.689l21.1 13.136a.393.393 0 0 1 .095.586L7.453 62.889c-.273.327.098.795.479.603l54.916-27.458a.393.393 0 0 0 .032-.685L41.875 22.257a.394.394 0 0 1-.094-.587L55.57 5.11c.272-.325-.092-.79-.474-.604M77.115 33.858c3.257 0 4.841 1.21 5.501 3.257.22.638.044.857-.66 1.143l-2.156.86c-.66.262-.88.175-1.1-.463-.309-.836-1.035-1.145-2.047-1.145-1.496 0-2.179.374-2.31 1.145-.155.946 1.1 1.144 2.684 1.342 2.464.352 5.61 1.496 4.885 5.523-.595 3.234-3.103 4.62-7.415 4.62-3.278 0-5.568-1.122-5.986-3.388-.13-.638.111-.946.792-1.188l2.157-.792c.682-.242.968-.154 1.211.483.242.771 1.034 1.166 2.265 1.166 1.497 0 2.421-.307 2.597-1.253.154-.88-.946-1.1-2.355-1.298-2.507-.374-5.918-1.166-5.192-5.457.528-2.905 2.927-4.555 7.13-4.555M91.657 33.858c3.39 0 5.017 1.452 5.48 3.917.13.638-.045.946-.75 1.187l-2.266.771c-.704.198-.946.088-1.1-.594-.198-.99-.77-1.43-2.003-1.43-1.738 0-2.55.748-2.816 2.266l-.726 4.05c-.264 1.517.286 2.265 2.025 2.265 1.231 0 2.002-.484 2.552-1.43.374-.683.66-.836 1.298-.595l2.244.881c.638.22.75.55.396 1.188-1.342 2.464-3.718 3.806-7.106 3.806-4.335 0-6.36-2.574-5.7-6.358l.704-4.07c.661-3.786 3.433-5.854 7.768-5.854M105.121 37.709c-1.54 0-2.553.727-2.795 2.112l-.769 4.357c-.243 1.386.505 2.112 2.045 2.112 1.52 0 2.531-.726 2.773-2.112l.77-4.357c.243-1.385-.505-2.112-2.024-2.112m.594-3.851c4.335 0 6.36 2.619 5.7 6.425l-.705 3.983c-.66 3.785-3.366 5.875-7.724 5.875-4.334 0-6.358-2.552-5.698-6.359l.682-3.982c.66-3.785 3.388-5.942 7.745-5.942M118.563 46.29c1.519 0 2.398-.726 2.618-2.024l1.628-9.154c.133-.681.397-.924 1.1-.924h2.487c.682 0 .88.243.77.924l-1.65 9.308c-.66 3.696-3.213 5.721-7.547 5.721-4.335 0-6.25-2.75-5.59-6.425l1.519-8.604c.132-.681.396-.924 1.1-.924h2.487c.682 0 .88.243.769.924l-1.628 9.154c-.22 1.298.418 2.024 1.937 2.024M141.003 35.112l-.352 1.98c-.131.705-.396.925-1.1.925h-3.278l-1.893 10.87c-.132.681-.418.923-1.1.923h-2.486c-.704 0-.902-.242-.77-.924l1.914-10.869h-3.279c-.704 0-.88-.22-.769-.925l.351-1.98c.132-.682.397-.924 1.101-.924h10.891c.682 0 .88.242.77.924M87.017 53.092l-2.42 13.817c-.133.683-.418.903-1.101.903h-2.398c-.704 0-.902-.22-.77-.903l.55-3.168c.264-1.452.617-2.838 1.958-5.764h-.198c-.374.725-1.517 2.75-2.134 3.652l-1.694 2.486c-.286.44-.55.617-1.145.617h-1.408c-.594 0-.792-.133-.946-.617l-.857-2.486c-.31-.858-.661-2.86-.75-3.652h-.197c.242 3.168.155 4.268-.132 5.786l-.55 3.146c-.11.683-.396.903-1.1.903h-2.311c-.681 0-.88-.22-.748-.903l2.42-13.817c.133-.683.397-.902 1.1-.902h2.047c.77 0 1.013.109 1.188.68l2.355 7.219 4.906-7.195c.397-.616.616-.704 1.343-.704h2.22c.706 0 .904.219.772.902M95.442 61.849l-.353-2.574c-.175-1.496.067-3.103.067-3.103h-.199s-.286 1.584-.99 3.08l-1.276 2.597h2.75zm-9.747 5.06l7.524-13.95c.33-.637.639-.77 1.277-.77h2.486c.638 0 .901.155 1.013.726l2.638 13.995c.112.594-.152.902-.813.902h-2.266c-1.145 0-1.43-.242-1.496-.924l-.22-1.585h-4.775l-.793 1.585c-.307.682-.66.924-1.737.924h-2.42c-.683 0-.748-.308-.418-.902zM117.31 53.113l-2.441 13.774c-.111.682-.397.924-1.101.924h-2.42c-.462 0-.66-.132-.814-.44l-2.376-5.237c-.66-1.452-.97-2.552-1.211-4.51h-.176c.11 2.068.154 3.213-.264 5.677l-.638 3.586c-.132.682-.418.924-1.1.924h-2.311c-.704 0-.902-.242-.77-.924l2.42-13.774c.133-.682.396-.924 1.1-.924h2.509c.485 0 .727.132.859.44l2.53 5.655c.616 1.342.902 2.553 1.21 4.005h.176c-.286-2.245-.396-3.323 0-5.545l.638-3.63c.11-.683.396-.925 1.078-.925h2.31c.705 0 .902.242.793.924M125.734 61.849l-.352-2.574c-.175-1.496.066-3.103.066-3.103h-.197s-.287 1.584-.99 3.08l-1.276 2.597h2.75zm-9.746 5.06l7.525-13.95c.33-.637.637-.77 1.276-.77h2.486c.638 0 .901.155 1.012.726l2.64 13.995c.11.594-.153.902-.814.902h-2.266c-1.143 0-1.43-.242-1.496-.924l-.22-1.585h-4.775l-.791 1.585c-.31.682-.66.924-1.739.924h-2.42c-.683 0-.749-.308-.419-.902zM145.733 59.78l-.55 3.19c-.55 3.147-3.278 5.171-7.612 5.171s-6.338-2.684-5.678-6.468l.704-3.983c.66-3.829 3.411-5.83 7.745-5.83 3.39 0 5.083 1.518 5.545 3.915.132.64-.065.97-.768 1.19l-2.245.681c-.726.22-.969.088-1.1-.595-.198-.902-.815-1.34-2.069-1.34-1.717 0-2.553.747-2.817 2.265l-.703 4.048c-.286 1.52.285 2.267 2.001 2.267 1.496 0 2.487-.55 2.662-1.496l.067-.44h-2.112c-.704 0-.88-.243-.77-.925l.286-1.65c.133-.704.395-.946 1.1-.946h5.544c.706 0 .904.242.77.946M159.594 53.113l-.353 1.98c-.131.705-.418.924-1.1.924h-5.83l-.33 1.981h4.642c.704 0 .88.242.77.946l-.352 1.958c-.132.704-.395.946-1.1.946h-4.643l-.374 2.113h6.007c.683 0 .88.22.748.923l-.352 2.003c-.11.682-.396.924-1.1.924h-9.395c-.704 0-.902-.242-.77-.924l2.42-13.774c.133-.682.396-.924 1.1-.924h9.22c.704 0 .9.242.792.924M167.49 56.018h-2.376l-.506 2.927h2.376c.924 0 1.563-.573 1.716-1.475.177-.901-.264-1.452-1.21-1.452m5.7 1.65c-.375 2.135-1.519 3.52-3.17 4.357.177.286.31.595.441.946l1.298 3.763c.22.594-.022 1.078-.748 1.078h-2.376c-1.166 0-1.607-.286-1.849-1.057l-.88-3.013c-.22-.748-.396-1.122-1.364-1.122h-.573l-.748 4.268c-.13.682-.418.924-1.099.924h-2.486c-.705 0-.903-.242-.77-.924l2.42-13.774c.132-.682.395-.924 1.1-.924h6.27c3.323 0 5.15 2.068 4.533 5.478"/>
        <path fill="#FFB00D" d="M178.725 66.133a2 2 0 1 0-4.002.001 2 2 0 0 0 4.002-.001"/>
        <path d="M0 0h180v70H0z"/>
    </g>
</svg>
