<svg xmlns="http://www.w3.org/2000/svg" xmlns:xlink="http://www.w3.org/1999/xlink" width="60" height="60" viewBox="0 0 60 60">
    <defs>
        <path id="a" d="M42.25 18c0-6.618-5.494-12-12.25-12s-12.25 5.382-12.25 12S23.245 30 30 30s12.25-5.382 12.25-12m11.587 42h-5.463c-1.69 0-3.062-1.344-3.062-3s1.372-3 3.062-3h1.314c2.119 0 3.684-2.091 2.881-4.014C48.861 41.094 40.152 36 30 36S11.139 41.094 7.43 49.986C6.629 51.909 8.194 54 10.313 54h1.314c1.69 0 3.062 1.344 3.062 3s-1.372 3-3.062 3H6.163C2.335 60-.68 56.57.133 52.908c2.23-10.077 9.19-17.514 18.359-20.89-4.183-3.296-6.866-8.348-6.866-14.018 0-10.653 9.444-19.143 20.576-17.874C40.268 1.044 46.95 7.34 48.16 15.21c1.04 6.783-1.792 12.978-6.652 16.809 9.169 3.375 16.13 10.812 18.359 20.889.812 3.663-2.202 7.092-6.03 7.092m-14.28-13.608a2.957 2.957 0 0 1 0 4.245L30 60l-6.495-6.363a2.957 2.957 0 0 1 0-4.245 3.11 3.11 0 0 1 4.33 0L30 51.516l5.227-5.124a3.11 3.11 0 0 1 4.33 0"/>
    </defs>
    <use fill="#9EA0A5" fill-opacity=".1" fill-rule="evenodd" xlink:href="#a"/>
</svg>
