<svg xmlns="http://www.w3.org/2000/svg" xmlns:xlink="http://www.w3.org/1999/xlink" width="20" height="20" viewBox="0 0 20 20">
    <defs>
        <path id="a" d="M6 18H3a1 1 0 0 1 0-2h3a1 1 0 0 1 0 2zm1-4H2a2 2 0 0 0-2 2v2a2 2 0 0 0 2 2h5a2 2 0 0 0 2-2v-2a2 2 0 0 0-2-2zM17 4h-3a1 1 0 0 1 0-2h3a1 1 0 0 1 0 2zm1-4h-5a2 2 0 0 0-2 2v2a2 2 0 0 0 2 2h5a2 2 0 0 0 2-2V2a2 2 0 0 0-2-2zm0 17a1 1 0 0 1-1 1h-3a1 1 0 0 1-1-1v-6a1 1 0 0 1 1-1h3a1 1 0 0 1 1 1v6zm0-9h-5a2 2 0 0 0-2 2v8a2 2 0 0 0 2 2h5a2 2 0 0 0 2-2v-8a2 2 0 0 0-2-2zM7 9a1 1 0 0 1-1 1H3a1 1 0 0 1-1-1V3a1 1 0 0 1 1-1h3a1 1 0 0 1 1 1v6zm0-9H2a2 2 0 0 0-2 2v8a2 2 0 0 0 2 2h5a2 2 0 0 0 2-2V2a2 2 0 0 0-2-2z"/>
    </defs>
    <g fill="none" fill-rule="evenodd">
        <mask id="b" fill="#fff">
            <use xlink:href="#a"/>
        </mask>
        <use fill="#FFF" fill-opacity="0" xlink:href="#a"/>
        <g fill="#3E3F42" mask="url(#b)">
            <path d="M0 0h20v20H0z"/>
        </g>
    </g>
</svg>
