<svg xmlns="http://www.w3.org/2000/svg" xmlns:xlink="http://www.w3.org/1999/xlink" width="60" height="60" viewBox="0 0 60 60">
    <defs>
        <path id="a" d="M42.25 18c0-6.618-5.494-12-12.25-12s-12.25 5.382-12.25 12S23.245 30 30 30s12.25-5.382 12.25-12m-8.007 33l2.121 2.121a3 3 0 0 1-4.243 4.243L30 55.243l-2.121 2.121a3 3 0 1 1-4.243-4.243l2.121-2.12-2.121-2.122a3 3 0 0 1 4.243-4.243L30 46.757l2.121-2.12a3 3 0 1 1 4.243 4.242L34.243 51zm19.594 9h-5.463c-1.69 0-3.062-1.344-3.062-3s1.372-3 3.062-3h1.314c2.119 0 3.684-2.091 2.881-4.014C48.861 41.094 40.152 36 30 36S11.139 41.094 7.43 49.986C6.629 51.909 8.194 54 10.313 54h1.314c1.69 0 3.062 1.344 3.062 3s-1.372 3-3.062 3H6.163C2.335 60-.68 56.571.133 52.908c2.23-10.077 9.19-17.514 18.359-20.889-4.183-3.297-6.866-8.349-6.866-14.019 0-10.653 9.444-19.143 20.576-17.874C40.268 1.044 46.95 7.34 48.16 15.21c1.04 6.783-1.792 12.978-6.652 16.809 9.169 3.375 16.13 10.812 18.359 20.889.812 3.663-2.202 7.092-6.03 7.092z"/>
    </defs>
    <use fill="#9EA0A5" fill-opacity=".1" fill-rule="evenodd" xlink:href="#a"/>
</svg>
