<svg xmlns="http://www.w3.org/2000/svg" width="140" height="140" viewBox="0 0 140 140">
    <g fill="none" fill-rule="evenodd" transform="translate(13)">
        <rect width="99.818" height="125.273" x="13.727" y="1" fill="#FFB00D" fill-rule="nonzero" stroke="#141516" stroke-width="2" rx="5"/>
        <rect width="99.818" height="125.273" x="1" y="13.727" fill="#FFF" fill-rule="nonzero" stroke="#141516" stroke-width="2" rx="5"/>
        <rect width="10.727" height="61.636" x="45.545" y="71" fill="#FFB00D" fill-rule="nonzero" stroke="#141516" stroke-width="2" rx="2" transform="rotate(90 50.91 101.818)"/>
        <path stroke="#141516" stroke-linecap="round" stroke-width="2" d="M21.636 122.182h58.546"/>
        <path fill="#141516" d="M36.203 35.97H31.8v12.095h-2.434V35.971H25V34h11.203v1.97zm10.107 5.816h-5.8v4.328h6.78v1.951h-9.234V34h9.166v1.97H40.51v3.884h5.8v1.932zm10.883 3.005h-5.47l-1.145 3.274h-2.551L53.362 34h2.202l5.344 14.065h-2.56l-1.155-3.274zm-4.782-1.971h4.094l-2.047-5.835-2.047 5.835zM65.691 34l4.073 10.781L73.828 34H77v14.065h-2.444V43.43l.242-6.202-4.17 10.838h-1.756L64.71 37.236l.242 6.193v4.636h-2.444V34h3.181zM38.278 67.228a6.068 6.068 0 0 1-.485 1.908 4.554 4.554 0 0 1-1.077 1.512c-.459.425-1.02.756-1.683.995-.662.238-1.427.357-2.294.357-.866 0-1.65-.156-2.352-.469a5.03 5.03 0 0 1-1.794-1.333c-.495-.576-.875-1.273-1.14-2.091-.265-.818-.398-1.736-.398-2.753v-1.14c0-1.011.136-1.927.408-2.749.271-.82.66-1.521 1.164-2.1a5.15 5.15 0 0 1 1.828-1.344c.715-.315 1.515-.473 2.4-.473.841 0 1.585.12 2.232.362a4.765 4.765 0 0 1 1.644 1.005c.45.428.802.939 1.057 1.531a6.54 6.54 0 0 1 .49 1.942h-2.444a5.453 5.453 0 0 0-.267-1.198 2.549 2.549 0 0 0-.539-.903 2.228 2.228 0 0 0-.882-.565c-.356-.13-.786-.194-1.29-.194-.556 0-1.043.105-1.46.314-.417.21-.765.512-1.043.909-.278.396-.486.883-.625 1.463a8.524 8.524 0 0 0-.209 1.98v1.16c0 .702.061 1.34.184 1.912.123.574.314 1.065.573 1.474.258.409.591.726.999.951.407.226.895.338 1.464.338.53 0 .978-.06 1.344-.183.365-.123.667-.303.907-.541.239-.239.425-.532.557-.88.133-.347.228-.746.287-1.197h2.444zm13.463-2.087c0 1.07-.14 2.027-.422 2.874-.281.847-.677 1.565-1.188 2.154a5.154 5.154 0 0 1-1.843 1.358c-.718.315-1.513.473-2.386.473-.867 0-1.659-.158-2.377-.473a5.293 5.293 0 0 1-1.857-1.358c-.52-.589-.925-1.307-1.213-2.154-.287-.847-.431-1.805-.431-2.874v-.715c0-1.069.144-2.028.431-2.879.288-.85.69-1.57 1.203-2.163a5.174 5.174 0 0 1 1.848-1.363c.718-.315 1.51-.473 2.376-.473.873 0 1.67.158 2.391.473.721.316 1.339.77 1.853 1.363.514.592.912 1.313 1.193 2.163.281.85.422 1.81.422 2.88v.714zm-2.454-.734c0-.786-.076-1.48-.228-2.082-.152-.602-.373-1.106-.664-1.512a2.876 2.876 0 0 0-1.072-.922 3.208 3.208 0 0 0-1.44-.314c-.524 0-.996.104-1.417.314-.42.209-.777.517-1.072.922-.294.406-.52.91-.679 1.512-.158.602-.237 1.296-.237 2.082v.734c0 .786.079 1.481.237 2.087.159.605.387 1.112.684 1.521.298.41.658.718 1.082.928.423.209.897.314 1.42.314 1.087 0 1.923-.413 2.508-1.237.585-.824.878-2.029.878-3.613v-.734zm4.898 7.4V57.74h4.171c.944 0 1.806.158 2.585.474.78.315 1.449.764 2.008 1.347a6.12 6.12 0 0 1 1.305 2.111c.31.824.465 1.745.465 2.763v.695c0 1.018-.153 1.937-.46 2.759a5.946 5.946 0 0 1-1.31 2.1 5.795 5.795 0 0 1-2.047 1.343c-.798.316-1.686.474-2.662.474h-4.055zm2.454-12.095v10.143h1.6c.667 0 1.252-.107 1.756-.323a3.25 3.25 0 0 0 1.257-.932c.333-.406.583-.902.751-1.488.168-.586.252-1.246.252-1.98v-.715c0-1.527-.333-2.692-.999-3.497-.666-.805-1.632-1.208-2.9-1.208H56.64zm18.779 5.816h-5.8v4.327h6.78v1.952h-9.234V57.74h9.166v1.971h-6.712v3.883h5.8v1.933z"/>
    </g>
</svg>
