<svg xmlns="http://www.w3.org/2000/svg" width="140" height="140" viewBox="0 0 140 140">
    <g fill="none" fill-rule="nonzero" stroke="#141516" stroke-width="2" transform="translate(5)">
        <path fill="#FFB00D" d="M17.667 111V75.667H11.37a4 4 0 0 0-3.881 3.03l-5.28 21.12A9 9 0 0 0 10.94 111h6.726zM113.185 111V75.667h6.296a4 4 0 0 1 3.88 3.03l5.28 21.12a9 9 0 0 1-8.73 11.183h-6.726z"/>
        <rect width="128.667" height="35.333" x="1" y="1" fill="#FFB00D" rx="10"/>
        <path fill="#FFF" d="M35.234 19.667c-10.383 0-18.843 8.334-18.998 18.716l-1.214 81.333-.002.284c0 10.493 8.507 19 19 19h62.627c.094 0 .189 0 .283-.002 10.492-.157 18.871-8.79 18.715-19.282l-1.214-81.333c-.155-10.382-8.616-18.716-18.998-18.716H35.234z"/>
        <rect width="72.667" height="63.333" x="29" y="10.333" fill="#FFF" rx="10"/>
        <path fill="#FFF" d="M29 94.333V130a9 9 0 0 0 9 9h54.667a9 9 0 0 0 9-9V94.333H29z"/>
        <rect width="35.333" height="7.333" x="47.667" y="127" fill="#FFB00D" rx="3.667"/>
        <path fill="#FFB00D" d="M43 57v40.667a4 4 0 0 0 4 4h4a4 4 0 0 0 4-4V57H43zM75.667 57v40.667a4 4 0 0 0 4 4h4a4 4 0 0 0 4-4V57h-12z"/>
        <path stroke-linecap="round" d="M38.267 20.533h55.066"/>
    </g>
</svg>
