<svg xmlns="http://www.w3.org/2000/svg" xmlns:xlink="http://www.w3.org/1999/xlink" width="20" height="20" viewBox="0 0 20 20">
    <defs>
        <path id="a" d="M16.72 12.206a1.936 1.936 0 0 0-.52 1.669l.644 3.916C17.045 19.01 16.115 20 15.06 20c-.278 0-.565-.069-.843-.221l-3.375-1.849a1.757 1.757 0 0 0-1.685 0l-3.375 1.849A1.748 1.748 0 0 1 4.94 20c-1.055 0-1.985-.99-1.784-2.209l.645-3.916a1.936 1.936 0 0 0-.52-1.669L.547 9.433C-.526 8.342.068 6.441 1.551 6.216l3.774-.571c.59-.089 1.1-.475 1.363-1.032l1.688-3.562A1.782 1.782 0 0 1 10 0c.646 0 1.292.35 1.624 1.051l1.688 3.562c.263.557.773.943 1.363 1.032l3.774.571c1.484.225 2.077 2.126 1.003 3.217l-2.73 2.773z"/>
    </defs>
    <g fill="none" fill-rule="evenodd">
        <mask id="b" fill="#fff">
            <use xlink:href="#a"/>
        </mask>
        <use fill="#FFF" fill-opacity="0" xlink:href="#a"/>
        <g fill="#6758F3" mask="url(#b)">
            <path d="M0 0h20v20H0z"/>
        </g>
    </g>
</svg>
