<svg xmlns="http://www.w3.org/2000/svg" xmlns:xlink="http://www.w3.org/1999/xlink" width="20" height="20" viewBox="0 0 20 20">
    <defs>
        <path id="a" d="M15.034 10.404a4.515 4.515 0 0 0-1.215 3.897l.437 2.656-2.29-1.254A4.104 4.104 0 0 0 10 15.197c-.683 0-1.363.175-1.967.506l-2.29 1.254.438-2.656a4.519 4.519 0 0 0-1.216-3.897L3.113 8.523l2.56-.388C7.05 7.927 8.24 7.027 8.855 5.727L10 3.31l1.145 2.417c.615 1.3 1.805 2.2 3.181 2.408l2.561.388-1.853 1.881zm4.417-.971c1.074-1.091.482-2.992-1.003-3.217l-3.774-.571a1.815 1.815 0 0 1-1.363-1.032l-1.688-3.562A1.782 1.782 0 0 0 10 0c-.646 0-1.292.35-1.624 1.051L6.69 4.613a1.818 1.818 0 0 1-1.363 1.032l-3.774.571C.067 6.441-.526 8.342.548 9.433l2.731 2.773c.427.433.622 1.057.521 1.669l-.645 3.916C2.955 19.01 3.885 20 4.94 20c.278 0 .566-.069.843-.221l3.375-1.849c.264-.144.553-.217.843-.217.29 0 .578.073.842.217l3.376 1.849c.277.152.564.221.842.221 1.055 0 1.985-.99 1.784-2.209l-.644-3.916a1.932 1.932 0 0 1 .52-1.669l2.731-2.773z"/>
    </defs>
    <g fill="none" fill-rule="evenodd">
        <mask id="b" fill="#fff">
            <use xlink:href="#a"/>
        </mask>
        <use fill="#FFF" fill-opacity="0" xlink:href="#a"/>
        <g fill="#6758F3" mask="url(#b)" opacity=".25">
            <path d="M0 0h20v20H0z"/>
        </g>
    </g>
</svg>
